<?xml version="1.0" encoding="utf-8"?>
<!-- Generator: Adobe Illustrator 16.0.0, SVG Export Plug-In . SVG Version: 6.00 Build 0)  -->
<!DOCTYPE svg PUBLIC "-//W3C//DTD SVG 1.1//EN" "http://www.w3.org/Graphics/SVG/1.1/DTD/svg11.dtd">
<svg version="1.1" id="Layer_1" xmlns="http://www.w3.org/2000/svg" xmlns:xlink="http://www.w3.org/1999/xlink" x="0px" y="0px"
	 width="40px" height="40px" viewBox="0 0 40 40" enable-background="new 0 0 40 40" xml:space="preserve">
<g>
	<g>
		<path fill="#FFFFFF" d="M10.225,1.738c0.163-1.076,0.654-1.598,1.514-1.649c0.98-0.059,1.438,0.349,1.819,1.633
			c4.294,0,8.594,0,12.889,0c0.367-1.286,0.854-1.711,1.854-1.632c0.841,0.067,1.324,0.592,1.476,1.648c0.142,0,0.289,0,0.438,0
			c2.426,0,4.85-0.001,7.274,0c1.282,0,2.014,0.745,2.014,2.043c0.001,11.376,0.001,22.752,0,34.129
			c0,1.281-0.731,2.029-1.981,2.029c-11.678,0-23.356,0-35.035,0c-1.254,0-1.983-0.746-1.983-2.026c0-11.376,0-22.752,0-34.129
			c0-1.302,0.728-2.045,2.011-2.046c2.412-0.002,4.824,0,7.236,0C9.9,1.738,10.05,1.738,10.225,1.738z M3.781,36.583
			c10.839,0,21.633,0,32.428,0c0-7.744,0-15.463,0-23.178c-10.825,0-21.619,0-32.428,0C3.781,21.141,3.781,28.85,3.781,36.583z
			 M3.78,11.674c10.838,0,21.634,0,32.434,0c0-2.21,0-4.393,0-6.577c-2.166,0-4.302,0-6.461,0c0,0.583,0.011,1.14-0.002,1.696
			c-0.021,0.923-0.618,1.541-1.534,1.6c-0.887,0.057-1.574-0.48-1.688-1.377c-0.061-0.473-0.029-0.958-0.038-1.437
			c-0.003-0.162-0.001-0.324-0.001-0.485c-4.355,0-8.652,0-12.98,0c0,0.553,0.01,1.083-0.002,1.612
			c-0.022,0.911-0.482,1.497-1.269,1.645c-1.149,0.215-1.979-0.485-1.988-1.677c-0.003-0.527,0-1.054,0-1.578
			c-2.188,0-4.327,0-6.472,0C3.78,7.299,3.78,9.474,3.78,11.674z"/>
		<path fill="#FFFFFF" d="M18.375,26.191c0.141-0.172,0.254-0.332,0.388-0.471c1.724-1.779,3.447-3.558,5.178-5.329
			c0.668-0.684,1.591-0.731,2.27-0.143c0.729,0.632,0.801,1.625,0.168,2.354c-0.068,0.078-0.143,0.149-0.217,0.224
			c-2.164,2.164-4.327,4.329-6.491,6.491c-0.875,0.875-1.719,0.893-2.611,0.048c-1.092-1.034-2.181-2.072-3.267-3.113
			c-0.757-0.724-0.8-1.711-0.113-2.411c0.685-0.697,1.671-0.674,2.414,0.064C16.837,24.646,17.575,25.391,18.375,26.191z"/>
	</g>
</g>
</svg>
