<?xml version="1.0" encoding="utf-8"?>
<!-- Generator: Adobe Illustrator 16.0.0, SVG Export Plug-In . SVG Version: 6.00 Build 0)  -->
<!DOCTYPE svg PUBLIC "-//W3C//DTD SVG 1.1//EN" "http://www.w3.org/Graphics/SVG/1.1/DTD/svg11.dtd">
<svg version="1.1" id="Layer_1" xmlns="http://www.w3.org/2000/svg" xmlns:xlink="http://www.w3.org/1999/xlink" x="0px" y="0px"
	 width="40px" height="39.969px" viewBox="5 5.035 40 39.969" enable-background="new 5 5.035 40 39.969" xml:space="preserve">
<path fill="#FFFFFF" d="M37.398,45.004l-0.047-0.001c-5.482-0.175-12.26-4.275-20.168-12.187C9.272,24.905,5.174,18.127,5.001,12.67
	c-0.086-2.68,5.852-6.908,5.912-6.95c1.545-1.076,3.649-0.841,4.541,0.393c0.456,0.632,4.79,7.203,5.262,7.949
	c0.593,0.933,0.529,2.283-0.171,3.609c-0.304,0.579-1.242,2.232-1.806,3.223c0.662,0.907,2.127,2.75,4.871,5.494
	c2.743,2.742,4.586,4.209,5.496,4.873c0.991-0.564,2.644-1.503,3.226-1.808c1.286-0.681,2.648-0.755,3.585-0.181
	c0.841,0.514,7.478,4.935,7.948,5.263c1.162,0.815,1.648,2.787,0.411,4.554c-0.041,0.059-4.206,5.915-6.854,5.915H37.398z
	 M37.417,42.156l0.004,1.424v-1.424C37.42,42.156,37.418,42.156,37.417,42.156z M7.849,12.636
	c0.24,5.875,6.296,13.113,11.348,18.167c5.058,5.06,12.308,11.126,18.164,11.351c0.885-0.3,3.476-3.114,4.581-4.696
	c0.219-0.312,0.227-0.547,0.204-0.647c-0.924-0.63-6.998-4.67-7.715-5.107c-0.064,0.027-0.347,0.045-0.772,0.271
	c-0.792,0.415-3.882,2.185-3.913,2.202l-0.717,0.41l-0.713-0.418c-0.094-0.057-2.361-1.41-6.719-5.767
	c-4.356-4.354-5.708-6.625-5.764-6.719l-0.417-0.712l0.41-0.715c0.018-0.031,1.786-3.12,2.199-3.908
	c0.208-0.394,0.257-0.697,0.25-0.815c-0.649-1.014-4.455-6.775-5.072-7.667c-0.088-0.023-0.321-0.043-0.659,0.192
	C10.962,9.16,8.148,11.753,7.849,12.636z"/>
</svg>
