<?xml version="1.0" encoding="utf-8"?>
<!-- Generator: Adobe Illustrator 16.0.0, SVG Export Plug-In . SVG Version: 6.00 Build 0)  -->
<!DOCTYPE svg PUBLIC "-//W3C//DTD SVG 1.1//EN" "http://www.w3.org/Graphics/SVG/1.1/DTD/svg11.dtd">
<svg version="1.1" id="Layer_1" xmlns="http://www.w3.org/2000/svg" xmlns:xlink="http://www.w3.org/1999/xlink" x="0px" y="0px"
	 width="28px" height="28px" viewBox="0 0 28 28" enable-background="new 0 0 28 28" xml:space="preserve">
<g>
	<g>
		<g>
			<path d="M14.183,27.634c-0.122,0-0.244,0-0.366,0c-0.198-0.102-0.395-0.207-0.594-0.305C8.704,25.1,5.337,21.764,3.386,17.074
				c-1.07-2.571-1.619-5.265-1.805-8.037C1.541,8.45,1.505,7.863,1.467,7.276c0-0.795,0-1.59,0-2.385
				c0.046-0.324,0.259-0.406,0.556-0.428C4.195,4.301,6.32,3.907,8.387,3.207c1.992-0.674,3.811-1.677,5.552-2.839
				c0.102,0,0.204,0,0.306,0c0.004,0.009,0.005,0.023,0.012,0.027c2.343,1.656,4.875,2.914,7.695,3.498
				c1.312,0.271,2.655,0.385,3.985,0.563c0.262,0.035,0.511,0.069,0.596,0.375c0,0.183,0,0.367,0,0.55
				c-0.018,0.18-0.042,0.361-0.049,0.542c-0.084,2.306-0.36,4.585-0.924,6.826c-1.26,5.001-3.77,9.229-7.834,12.455
				C16.607,26.091,15.368,26.828,14.183,27.634z M3.066,6.009c0,0.045,0,0.116,0,0.186c-0.002,2.279,0.211,4.535,0.729,6.759
				c1.306,5.601,4.424,9.821,9.49,12.594c0.501,0.274,0.832,0.247,1.297-0.057c3.801-2.482,6.641-5.757,8.361-9.978
				c1.043-2.559,1.617-5.226,1.869-7.968c0.049-0.533,0.08-1.068,0.121-1.596c-0.072-0.019-0.102-0.029-0.131-0.034
				c-0.07-0.012-0.142-0.023-0.211-0.03c-3.727-0.342-7.127-1.613-10.271-3.611c-0.177-0.112-0.299-0.128-0.486-0.009
				c-2.197,1.405-4.569,2.415-7.104,3.021C5.537,5.572,4.32,5.765,3.066,6.009z"/>
			<path d="M14.245,0.367c0.004,0.009,0.005,0.023,0.012,0.027c2.343,1.656,4.875,2.914,7.695,3.498
				c1.312,0.271,2.655,0.385,3.985,0.563c0.262,0.035,0.511,0.069,0.596,0.375c0,0.183,0,0.367,0,0.55
				c-0.018,0.18-0.042,0.361-0.049,0.542c-0.084,2.306-0.36,4.585-0.924,6.826c-1.26,5.001-3.77,9.229-7.834,12.455
				c-1.119,0.888-2.358,1.624-3.542,2.43c-0.122,0-0.244,0-0.366,0c-0.198-0.102-0.395-0.207-0.594-0.305
				c-4.519-2.23-7.886-5.566-9.837-10.255c-1.07-2.571-1.619-5.265-1.805-8.037c-0.04-0.587-0.076-1.174-0.114-1.761
				c0-0.795,0-1.59,0-2.385c0.046-0.324,0.259-0.406,0.556-0.428C4.195,4.301,6.32,3.907,8.387,3.207
				c1.992-0.674,3.811-1.677,5.552-2.839C14.041,0.367,14.143,0.367,14.245,0.367 M13.903,25.736c0.219,0,0.43-0.082,0.68-0.246
				c3.801-2.482,6.64-5.758,8.36-9.979c1.043-2.558,1.617-5.225,1.871-7.967c0.049-0.533,0.08-1.068,0.119-1.596
				c-0.072-0.019-0.101-0.029-0.129-0.034c-0.07-0.012-0.143-0.023-0.212-0.03c-3.727-0.342-7.127-1.613-10.271-3.611
				c-0.093-0.06-0.171-0.091-0.251-0.091c-0.072,0-0.146,0.026-0.234,0.083C11.64,3.671,9.268,4.681,6.733,5.287
				C5.537,5.572,4.32,5.765,3.066,6.009c0,0.045,0,0.116,0,0.186c-0.002,2.279,0.211,4.535,0.729,6.759
				c1.306,5.601,4.424,9.821,9.49,12.594C13.518,25.675,13.713,25.736,13.903,25.736 M14.245,0h-0.306l-0.204,0.062
				c-1.959,1.309-3.697,2.198-5.466,2.797c-1.963,0.665-4.016,1.07-6.273,1.237c-0.527,0.04-0.827,0.289-0.892,0.743L1.101,4.891
				v2.385v0.023c0.012,0.187,0.024,0.373,0.036,0.56C1.162,8.252,1.188,8.66,1.215,9.061c0.203,3.01,0.803,5.677,1.833,8.153
				c0.973,2.339,2.329,4.413,4.03,6.165c1.643,1.691,3.656,3.13,5.982,4.278c0.132,0.065,0.267,0.135,0.397,0.202
				c0.063,0.033,0.127,0.066,0.191,0.1L13.817,28h0.366l0.207-0.063c0.37-0.252,0.752-0.502,1.124-0.744
				c0.815-0.532,1.66-1.082,2.44-1.702c2.021-1.603,3.719-3.505,5.052-5.655c1.281-2.066,2.262-4.421,2.909-6.998
				c0.539-2.14,0.845-4.397,0.935-6.901c0.004-0.111,0.018-0.225,0.029-0.345c0.007-0.059,0.014-0.119,0.02-0.178V5.381V4.83
				l-0.013-0.099c-0.149-0.538-0.618-0.601-0.897-0.639c-0.396-0.053-0.795-0.101-1.184-0.147c-0.918-0.11-1.869-0.223-2.779-0.413
				c-2.564-0.531-5.037-1.655-7.559-3.438c0.059,0.042,0.092,0.09,0.112,0.13L14.245,0L14.245,0z M3.434,6.313
				c0.293-0.057,0.585-0.11,0.87-0.163C5.17,5.992,5.988,5.841,6.818,5.644C9.377,5.033,11.805,4,14.034,2.576
				c0.017-0.011,0.029-0.018,0.037-0.021c0.01,0.004,0.028,0.013,0.054,0.03c1.621,1.03,3.3,1.859,4.99,2.462
				c1.757,0.628,3.584,1.033,5.429,1.203c-0.004,0.058-0.008,0.117-0.012,0.174c-0.024,0.357-0.05,0.727-0.083,1.088
				c-0.268,2.903-0.871,5.474-1.844,7.862c-1.638,4.017-4.403,7.315-8.222,9.81c-0.198,0.129-0.346,0.187-0.48,0.187
				c-0.122,0-0.262-0.045-0.441-0.146C8.572,22.55,5.44,18.393,4.153,12.87C3.674,10.815,3.438,8.668,3.434,6.313L3.434,6.313z"/>
		</g>
		<path d="M11.668,15.128c0.211-0.202,0.42-0.394,0.621-0.595c1.472-1.467,2.941-2.937,4.412-4.406
			c0.064-0.065,0.129-0.131,0.195-0.194c0.891-0.84,2.039-0.563,2.453,0.598c0.123,0.35,0.067,0.688-0.138,0.991
			c-0.137,0.2-0.295,0.39-0.466,0.562c-1.941,1.948-3.889,3.893-5.834,5.836c-0.042,0.043-0.085,0.087-0.13,0.13
			c-0.74,0.708-1.372,0.706-2.093-0.017c-0.539-0.542-1.073-1.088-1.606-1.635c-0.841-0.865-0.481-2.146,0.694-2.465
			c0.46-0.125,0.852,0.031,1.171,0.35C11.199,14.534,11.411,14.823,11.668,15.128z"/>
	</g>
</g>
</svg>
