<?xml version="1.0" encoding="utf-8"?>
<!-- Generator: Adobe Illustrator 16.0.0, SVG Export Plug-In . SVG Version: 6.00 Build 0)  -->
<!DOCTYPE svg PUBLIC "-//W3C//DTD SVG 1.1//EN" "http://www.w3.org/Graphics/SVG/1.1/DTD/svg11.dtd">
<svg version="1.1" id="Layer_1" xmlns="http://www.w3.org/2000/svg" xmlns:xlink="http://www.w3.org/1999/xlink" x="0px" y="0px"
	 width="26px" height="22px" viewBox="0 0 26 22" enable-background="new 0 0 26 22" xml:space="preserve">
<g>
	<g>
		<path fill="#FFFFFF" d="M23.294,10.295H5.064l4.35-4.35c0.381-0.381,0.381-0.999,0-1.379c-0.381-0.381-0.999-0.381-1.379,0
			l-6.015,6.016c-0.381,0.381-0.381,0.999,0,1.379l6.015,6.017c0.19,0.19,0.44,0.285,0.69,0.285c0.249,0,0.499-0.095,0.689-0.285
			c0.381-0.381,0.381-0.998,0-1.38l-4.35-4.351h18.23c0.539,0,0.976-0.437,0.976-0.976C24.27,10.732,23.833,10.295,23.294,10.295
			L23.294,10.295z M23.294,10.295"/>
	</g>
</g>
</svg>
