<?xml version="1.0" encoding="utf-8"?>
<!-- Generator: Adobe Illustrator 16.0.0, SVG Export Plug-In . SVG Version: 6.00 Build 0)  -->
<!DOCTYPE svg PUBLIC "-//W3C//DTD SVG 1.1//EN" "http://www.w3.org/Graphics/SVG/1.1/DTD/svg11.dtd">
<svg version="1.1" id="Layer_1" xmlns="http://www.w3.org/2000/svg" xmlns:xlink="http://www.w3.org/1999/xlink" x="0px" y="0px"
	 width="20px" height="20px" viewBox="0 0 20 20" enable-background="new 0 0 20 20" xml:space="preserve">
<g>
	<path fill="#3B5998" d="M20,18.75c0,0.689-0.561,1.249-1.25,1.249H1.25c-0.69,0-1.25-0.56-1.25-1.249V1.25C0,0.56,0.56,0,1.25,0
		h17.5C19.439,0,20,0.56,20,1.25V18.75z"/>
	<path id="f" fill="#FFFFFF" d="M13.75,19.999v-7.5h2.5l0.625-3.125H13.75v-1.25c0-1.25,0.627-1.875,1.875-1.875h1.25V3.125
		c-0.625,0-1.4,0-2.5,0c-2.297,0-3.75,1.801-3.75,4.375v1.875h-2.5v3.125h2.5v7.5H13.75z"/>
</g>
</svg>
