<?xml version="1.0" encoding="utf-8"?>
<!-- Generator: Adobe Illustrator 16.0.0, SVG Export Plug-In . SVG Version: 6.00 Build 0)  -->
<!DOCTYPE svg PUBLIC "-//W3C//DTD SVG 1.1//EN" "http://www.w3.org/Graphics/SVG/1.1/DTD/svg11.dtd">
<svg version="1.1" id="Layer_1" xmlns="http://www.w3.org/2000/svg" xmlns:xlink="http://www.w3.org/1999/xlink" x="0px" y="0px"
	 width="28px" height="28px" viewBox="0 0 28 28" enable-background="new 0 0 28 28" xml:space="preserve">
<g>
	<g>
		<path d="M0,15.708c0-1.161,0-2.322,0-3.483c0.034-0.107,0.068-0.214,0.103-0.322c0.217-0.667,0.659-1.071,1.362-1.172
			c0.798-0.115,1.596-0.236,2.394-0.351c0.396-0.058,0.676-0.718,0.436-1.042c-0.488-0.656-0.981-1.31-1.469-1.966
			C2.263,6.616,2.29,5.725,2.938,5.043c0.697-0.732,1.414-1.449,2.147-2.146c0.676-0.643,1.554-0.67,2.298-0.115
			c0.656,0.489,1.309,0.982,1.963,1.474c0.366,0.274,1,0.021,1.072-0.436c0.125-0.796,0.247-1.594,0.358-2.393
			c0.094-0.687,0.493-1.099,1.132-1.309C12.035,0.077,12.165,0.039,12.293,0c1.138,0,2.275,0,3.415,0
			c0.052,0.021,0.103,0.048,0.156,0.06c0.831,0.183,1.233,0.594,1.368,1.438c0.127,0.786,0.232,1.574,0.355,2.36
			c0.064,0.414,0.706,0.669,1.037,0.422c0.665-0.499,1.327-1,1.992-1.497c0.747-0.558,1.617-0.529,2.298,0.119
			c0.733,0.699,1.449,1.417,2.146,2.15c0.637,0.67,0.664,1.565,0.111,2.303c-0.436,0.583-0.849,1.186-1.322,1.736
			c-0.298,0.345-0.356,0.658-0.119,1.024c0.07,0.107,0.191,0.232,0.306,0.25c0.819,0.134,1.642,0.25,2.464,0.359
			c0.738,0.097,1.189,0.516,1.41,1.208c0.031,0.097,0.061,0.194,0.09,0.291c0,1.161,0,2.322,0,3.483
			c-0.034,0.106-0.068,0.214-0.104,0.321c-0.215,0.666-0.658,1.07-1.362,1.172c-0.798,0.115-1.595,0.234-2.394,0.351
			c-0.395,0.058-0.675,0.718-0.436,1.041c0.488,0.656,0.98,1.31,1.469,1.966c0.555,0.745,0.542,1.633-0.089,2.303
			c-0.709,0.752-1.442,1.484-2.194,2.193c-0.67,0.631-1.535,0.646-2.271,0.098c-0.675-0.502-1.345-1.01-2.019-1.512
			c-0.289-0.218-0.947,0.043-1.004,0.402c-0.132,0.841-0.258,1.684-0.377,2.525c-0.093,0.651-0.468,1.064-1.063,1.3
			c-0.125,0.05-0.254,0.089-0.383,0.133c-1.184,0-2.366,0-3.55,0c-0.04-0.019-0.079-0.045-0.122-0.056
			c-0.777-0.193-1.239-0.662-1.341-1.478c-0.099-0.776-0.22-1.552-0.338-2.325c-0.075-0.483-0.702-0.738-1.088-0.451
			c-0.646,0.484-1.291,0.97-1.938,1.451c-0.742,0.555-1.601,0.549-2.271-0.078c-0.763-0.715-1.502-1.459-2.217-2.221
			c-0.608-0.648-0.625-1.537-0.096-2.248c0.434-0.583,0.851-1.183,1.321-1.736c0.295-0.347,0.391-0.668,0.133-1.049
			c-0.072-0.105-0.193-0.228-0.309-0.246c-0.818-0.135-1.639-0.25-2.461-0.358c-0.585-0.079-1.023-0.361-1.282-0.896
			C0.123,16.121,0.071,15.909,0,15.708z M6.333,23.73c0.948-0.707,1.902-1.424,2.867-2.129c0.097-0.07,0.278-0.121,0.378-0.08
			c0.725,0.295,1.435,0.627,2.16,0.918c0.198,0.08,0.249,0.199,0.273,0.377c0.161,1.16,0.332,2.318,0.48,3.479
			c0.031,0.24,0.127,0.297,0.348,0.294c0.774-0.01,1.547-0.014,2.321,0.001c0.256,0.005,0.32-0.091,0.352-0.33
			c0.148-1.161,0.323-2.319,0.477-3.479c0.027-0.208,0.119-0.305,0.313-0.379c0.665-0.26,1.328-0.528,1.976-0.829
			c0.226-0.105,0.367-0.108,0.57,0.046c0.938,0.718,1.889,1.418,2.809,2.105c0.705-0.705,1.395-1.396,2.099-2.102
			c-0.054-0.076-0.123-0.178-0.196-0.277c-0.647-0.865-1.3-1.728-1.938-2.599c-0.065-0.091-0.116-0.258-0.079-0.351
			c0.297-0.736,0.611-1.465,0.938-2.189c0.045-0.1,0.174-0.208,0.279-0.227c0.639-0.106,1.282-0.188,1.924-0.28
			c0.625-0.091,1.252-0.183,1.881-0.275c0-0.993,0-1.945,0-2.909c-0.135-0.028-0.254-0.061-0.375-0.078
			c-1.125-0.161-2.25-0.329-3.379-0.468c-0.24-0.03-0.313-0.142-0.391-0.337c-0.268-0.674-0.543-1.346-0.848-2.005
			c-0.09-0.197-0.07-0.315,0.054-0.478c0.642-0.841,1.272-1.691,1.905-2.538c0.087-0.114,0.169-0.232,0.231-0.319
			c-0.714-0.711-1.399-1.393-2.099-2.089c-0.943,0.703-1.912,1.418-2.871,2.146c-0.161,0.123-0.273,0.116-0.453,0.034
			c-0.66-0.303-1.326-0.591-2.001-0.855c-0.22-0.086-0.323-0.192-0.354-0.426c-0.151-1.138-0.323-2.274-0.475-3.412
			c-0.027-0.203-0.097-0.268-0.297-0.265c-0.808,0.009-1.616,0.009-2.424,0c-0.2-0.002-0.271,0.061-0.297,0.265
			c-0.15,1.15-0.321,2.297-0.474,3.447c-0.031,0.231-0.123,0.333-0.352,0.416c-0.649,0.236-1.291,0.5-1.916,0.795
			C9.496,6.469,9.336,6.456,9.119,6.29C8.191,5.579,7.25,4.886,6.346,4.21C5.639,4.918,4.951,5.609,4.248,6.314
			c0.051,0.072,0.121,0.174,0.195,0.273c0.646,0.865,1.298,1.728,1.934,2.602C6.444,9.283,6.471,9.464,6.429,9.57
			c-0.287,0.715-0.59,1.424-0.907,2.126c-0.049,0.109-0.183,0.231-0.294,0.25c-0.639,0.111-1.282,0.19-1.923,0.283
			c-0.625,0.09-1.249,0.185-1.863,0.275c0,1.003,0,1.955,0,2.914c0.141,0.027,0.262,0.057,0.385,0.075
			c1.114,0.159,2.228,0.323,3.344,0.465c0.224,0.028,0.33,0.103,0.405,0.319c0.187,0.535,0.34,1.099,0.631,1.576
			c0.316,0.521,0.27,0.869-0.117,1.328c-0.665,0.789-1.25,1.645-1.855,2.452C4.939,22.338,5.622,23.02,6.333,23.73z"/>
		<path d="M14.027,7.753c3.393,0.023,6.094,2.769,6.063,6.163c-0.031,3.363-2.783,6.053-6.167,6.025
			c-3.335-0.025-6.035-2.787-6.011-6.146C7.936,10.438,10.677,7.73,14.027,7.753z M18.659,13.863
			c0.007-2.578-2.067-4.669-4.644-4.685c-2.565-0.015-4.666,2.077-4.675,4.653c-0.01,2.578,2.068,4.671,4.643,4.678
			C16.563,18.518,18.652,16.439,18.659,13.863z"/>
	</g>
</g>
</svg>
