<?xml version="1.0" encoding="utf-8"?>
<!-- Generator: Adobe Illustrator 16.0.0, SVG Export Plug-In . SVG Version: 6.00 Build 0)  -->
<!DOCTYPE svg PUBLIC "-//W3C//DTD SVG 1.1//EN" "http://www.w3.org/Graphics/SVG/1.1/DTD/svg11.dtd">
<svg version="1.1" id="Layer_1" xmlns="http://www.w3.org/2000/svg" xmlns:xlink="http://www.w3.org/1999/xlink" x="0px" y="0px"
	 width="28px" height="27.979px" viewBox="11 11.03 28 27.979" enable-background="new 11 11.03 28 27.979" xml:space="preserve">
<path d="M33.679,39.009l-0.032-0.001c-3.838-0.122-8.582-2.993-14.118-8.53c-5.538-5.539-8.407-10.283-8.527-14.103
	c-0.061-1.875,4.096-4.835,4.138-4.865c1.082-0.753,2.555-0.589,3.179,0.275c0.319,0.442,3.353,5.042,3.684,5.564
	c0.416,0.653,0.371,1.598-0.12,2.527c-0.212,0.405-0.869,1.562-1.264,2.256c0.463,0.634,1.489,1.925,3.409,3.846
	c1.92,1.919,3.21,2.946,3.847,3.411c0.693-0.396,1.851-1.053,2.258-1.266c0.9-0.477,1.854-0.528,2.51-0.127
	c0.588,0.36,5.233,3.454,5.563,3.685c0.813,0.57,1.153,1.95,0.288,3.188c-0.029,0.041-2.944,4.141-4.799,4.141H33.679z
	 M33.692,37.015l0.002,0.997v-0.997H33.692z M12.994,16.351c0.168,4.113,4.407,9.179,7.943,12.716
	c3.541,3.542,8.615,7.788,12.715,7.945c0.619-0.21,2.433-2.18,3.207-3.287c0.152-0.218,0.158-0.383,0.143-0.453
	c-0.646-0.441-4.898-3.269-5.4-3.575c-0.045,0.02-0.243,0.031-0.541,0.189c-0.554,0.29-2.717,1.529-2.739,1.541l-0.501,0.287
	l-0.499-0.292c-0.066-0.04-1.653-0.987-4.704-4.037c-3.049-3.048-3.996-4.637-4.035-4.703l-0.292-0.499l0.287-0.501
	c0.013-0.022,1.25-2.184,1.54-2.736c0.146-0.275,0.18-0.487,0.175-0.571c-0.455-0.709-3.119-4.743-3.55-5.367
	c-0.062-0.017-0.225-0.03-0.461,0.135C15.174,13.918,13.204,15.733,12.994,16.351z"/>
</svg>
