<?xml version="1.0" encoding="utf-8"?>
<!-- Generator: Adobe Illustrator 16.0.0, SVG Export Plug-In . SVG Version: 6.00 Build 0)  -->
<!DOCTYPE svg PUBLIC "-//W3C//DTD SVG 1.1//EN" "http://www.w3.org/Graphics/SVG/1.1/DTD/svg11.dtd">
<svg version="1.1" id="Layer_1" xmlns="http://www.w3.org/2000/svg" xmlns:xlink="http://www.w3.org/1999/xlink" x="0px" y="0px"
	 width="28px" height="28px" viewBox="0 0 28 28" enable-background="new 0 0 28 28" xml:space="preserve">
<g>
	<g>
		<path d="M7.157,1.216c0.114-0.753,0.458-1.118,1.06-1.154C8.903,0.021,9.224,0.306,9.49,1.205c3.006,0,6.015,0,9.021,0
			c0.258-0.9,0.598-1.198,1.299-1.142c0.59,0.047,0.926,0.414,1.033,1.153c0.098,0,0.202,0,0.307,0c1.697,0,3.395,0,5.091,0
			c0.897,0,1.409,0.521,1.409,1.431c0.002,7.963,0.002,15.926,0,23.89c0,0.896-0.512,1.422-1.387,1.422c-8.174,0-16.349,0-24.523,0
			c-0.878,0-1.388-0.521-1.388-1.419c0-7.964,0-15.927,0-23.891c0-0.911,0.51-1.432,1.407-1.433c1.688-0.001,3.377,0,5.065,0
			C6.93,1.216,7.035,1.216,7.157,1.216z M2.646,25.607c7.587,0,15.143,0,22.7,0c0-5.42,0-10.823,0-16.224c-7.576,0-15.133,0-22.7,0
			C2.646,14.798,2.646,20.195,2.646,25.607z M2.646,8.172c7.587,0,15.144,0,22.704,0c0-1.547,0-3.075,0-4.604
			c-1.516,0-3.011,0-4.522,0c0,0.408,0.007,0.798,0,1.188c-0.015,0.646-0.433,1.079-1.074,1.12c-0.621,0.04-1.103-0.336-1.183-0.964
			c-0.041-0.331-0.02-0.67-0.025-1.005c-0.002-0.114-0.001-0.227-0.001-0.34c-3.049,0-6.056,0-9.086,0
			c0,0.387,0.007,0.758-0.001,1.128C9.441,5.333,9.119,5.743,8.568,5.846c-0.804,0.15-1.386-0.339-1.391-1.174
			c-0.002-0.369,0-0.738,0-1.104c-1.532,0-3.029,0-4.531,0C2.646,5.109,2.646,6.632,2.646,8.172z"/>
		<path d="M12.862,18.334c0.099-0.121,0.178-0.232,0.271-0.33c1.207-1.245,2.413-2.49,3.625-3.73c0.469-0.479,1.114-0.512,1.59-0.1
			c0.51,0.442,0.561,1.139,0.116,1.646c-0.048,0.056-0.1,0.105-0.151,0.158c-1.515,1.515-3.028,3.029-4.543,4.543
			c-0.613,0.612-1.203,0.625-1.828,0.033c-0.764-0.724-1.526-1.449-2.287-2.179c-0.53-0.506-0.56-1.198-0.079-1.688
			c0.479-0.487,1.169-0.472,1.69,0.045C11.786,17.25,12.303,17.773,12.862,18.334z"/>
	</g>
</g>
</svg>
