<?xml version="1.0" encoding="utf-8"?>
<!-- Generator: Adobe Illustrator 16.0.0, SVG Export Plug-In . SVG Version: 6.00 Build 0)  -->
<!DOCTYPE svg PUBLIC "-//W3C//DTD SVG 1.1//EN" "http://www.w3.org/Graphics/SVG/1.1/DTD/svg11.dtd">
<svg version="1.1" id="Layer_1" xmlns="http://www.w3.org/2000/svg" xmlns:xlink="http://www.w3.org/1999/xlink" x="0px" y="0px"
	 width="40px" height="40px" viewBox="0 0 40 40" enable-background="new 0 0 40 40" xml:space="preserve">
<g>
	<g>
		<g>
			<path fill="#FFFFFF" d="M20.262,39.477c-0.175,0-0.349,0-0.523,0c-0.283-0.146-0.563-0.295-0.848-0.436
				c-6.455-3.186-11.266-7.951-14.053-14.65C3.31,20.717,2.526,16.87,2.259,12.91c-0.057-0.839-0.109-1.677-0.163-2.516
				c0-1.136,0-2.271,0-3.406C2.162,6.526,2.467,6.407,2.89,6.376c3.102-0.23,6.138-0.794,9.09-1.794
				c2.846-0.963,5.445-2.396,7.932-4.056c0.146,0,0.291,0,0.437,0c0.005,0.013,0.007,0.033,0.017,0.039
				c3.347,2.366,6.965,4.162,10.993,4.997c1.873,0.388,3.795,0.55,5.695,0.805c0.372,0.05,0.729,0.098,0.85,0.535
				c0,0.262,0,0.524,0,0.786c-0.024,0.258-0.062,0.516-0.07,0.775c-0.118,3.294-0.514,6.55-1.318,9.75
				c-1.801,7.146-5.386,13.186-11.191,17.793C23.725,37.273,21.954,38.325,20.262,39.477z M4.38,8.584c0,0.064,0,0.165,0,0.265
				c-0.003,3.256,0.302,6.479,1.042,9.656c1.865,8,6.319,14.031,13.557,17.991c0.716,0.393,1.188,0.354,1.854-0.082
				c5.431-3.545,9.485-8.225,11.944-14.254c1.49-3.653,2.31-7.463,2.671-11.381c0.069-0.762,0.114-1.526,0.171-2.28
				c-0.102-0.027-0.143-0.042-0.186-0.048c-0.101-0.017-0.203-0.033-0.303-0.042C29.809,7.92,24.951,6.104,20.459,3.25
				c-0.252-0.161-0.427-0.183-0.694-0.013c-3.139,2.007-6.527,3.45-10.148,4.315C7.909,7.96,6.171,8.236,4.38,8.584z"/>
			<path fill="#FFFFFF" d="M20.35,0.524c0.005,0.013,0.007,0.033,0.017,0.039c3.347,2.366,6.965,4.162,10.992,4.997
				c1.875,0.388,3.795,0.55,5.695,0.805c0.373,0.05,0.729,0.098,0.85,0.535c0,0.262,0,0.524,0,0.786
				c-0.023,0.258-0.061,0.516-0.069,0.775c-0.118,3.294-0.515,6.55-1.319,9.75c-1.8,7.146-5.385,13.186-11.19,17.793
				c-1.599,1.268-3.37,2.32-5.062,3.471c-0.175,0-0.349,0-0.523,0c-0.283-0.145-0.563-0.295-0.848-0.435
				c-6.455-3.187-11.266-7.951-14.053-14.649c-1.528-3.675-2.312-7.521-2.579-11.481c-0.057-0.839-0.109-1.677-0.163-2.516
				c0-1.136,0-2.271,0-3.406c0.066-0.462,0.371-0.581,0.794-0.612c3.102-0.23,6.138-0.794,9.09-1.794
				c2.846-0.963,5.445-2.396,7.932-4.056C20.059,0.524,20.204,0.524,20.35,0.524 M19.862,36.768c0.313,0,0.615-0.121,0.971-0.354
				c5.431-3.545,9.485-8.225,11.944-14.254c1.49-3.653,2.31-7.463,2.671-11.381c0.069-0.762,0.114-1.526,0.171-2.28
				c-0.102-0.027-0.143-0.042-0.186-0.048c-0.101-0.017-0.203-0.033-0.303-0.042C29.809,7.92,24.951,6.104,20.459,3.25
				c-0.133-0.085-0.245-0.13-0.359-0.13c-0.103,0-0.208,0.037-0.334,0.118c-3.139,2.007-6.527,3.45-10.148,4.315
				C7.909,7.96,6.171,8.236,4.38,8.584c0,0.064,0,0.165,0,0.265c-0.003,3.256,0.302,6.479,1.042,9.656
				c1.865,8,6.319,14.031,13.557,17.991C19.312,36.68,19.591,36.768,19.862,36.768 M20.35,0h-0.437l-0.292,0.088
				c-2.799,1.87-5.281,3.14-7.809,3.997c-2.805,0.95-5.737,1.528-8.961,1.768C2.099,5.908,1.67,6.265,1.578,6.913L1.572,6.987v3.406
				l0.001,0.033c0.017,0.267,0.034,0.533,0.051,0.799c0.036,0.563,0.073,1.146,0.112,1.719c0.29,4.3,1.146,8.111,2.619,11.647
				c1.39,3.341,3.328,6.304,5.758,8.808c2.347,2.416,5.223,4.472,8.546,6.111c0.189,0.094,0.381,0.193,0.567,0.29
				c0.091,0.048,0.182,0.095,0.273,0.142L19.739,40h0.523l0.294-0.091c0.528-0.358,1.075-0.716,1.604-1.062
				c1.167-0.762,2.373-1.548,3.487-2.433c2.886-2.289,5.313-5.007,7.218-8.079c1.831-2.953,3.229-6.316,4.155-9.997
				c0.771-3.057,1.207-6.282,1.336-9.859c0.004-0.159,0.022-0.321,0.041-0.493c0.01-0.084,0.019-0.169,0.026-0.254l0.002-0.048V6.9
				l-0.019-0.141c-0.213-0.769-0.883-0.858-1.283-0.913c-0.564-0.076-1.136-0.145-1.689-0.21c-1.313-0.157-2.67-0.319-3.972-0.589
				c-3.663-0.759-7.194-2.365-10.796-4.911c0.083,0.059,0.132,0.129,0.16,0.185L20.35,0L20.35,0z M4.905,9.018
				c0.419-0.08,0.836-0.156,1.244-0.231C7.386,8.56,8.555,8.345,9.74,8.062c3.656-0.873,7.125-2.348,10.309-4.382
				c0.024-0.016,0.042-0.025,0.053-0.03c0.015,0.006,0.04,0.019,0.077,0.043c2.316,1.472,4.715,2.655,7.129,3.517
				c2.51,0.897,5.121,1.476,7.756,1.719c-0.006,0.083-0.013,0.167-0.019,0.249c-0.035,0.511-0.071,1.038-0.119,1.554
				c-0.383,4.146-1.245,7.82-2.634,11.231c-2.338,5.736-6.29,10.451-11.745,14.014c-0.283,0.185-0.494,0.267-0.686,0.267
				c-0.173,0-0.374-0.063-0.631-0.206c-6.985-3.822-11.459-9.762-13.297-17.651C5.249,15.45,4.912,12.383,4.905,9.018L4.905,9.018z"
				/>
		</g>
		<path fill="#FFFFFF" d="M16.669,21.611c0.302-0.288,0.601-0.563,0.887-0.85c2.102-2.097,4.202-4.196,6.301-6.294
			c0.094-0.093,0.185-0.187,0.281-0.277c1.271-1.201,2.911-0.803,3.502,0.854c0.178,0.5,0.099,0.984-0.195,1.416
			c-0.194,0.286-0.42,0.558-0.666,0.803c-2.773,2.783-5.555,5.559-8.333,8.337c-0.061,0.063-0.122,0.125-0.186,0.186
			c-1.058,1.012-1.96,1.009-2.991-0.023c-0.77-0.773-1.533-1.555-2.294-2.336c-1.202-1.234-0.687-3.063,0.992-3.521
			c0.658-0.179,1.217,0.045,1.673,0.5C15.999,20.764,16.301,21.176,16.669,21.611z"/>
	</g>
</g>
</svg>
