<?xml version="1.0" encoding="utf-8"?>
<!-- Generator: Adobe Illustrator 16.0.0, SVG Export Plug-In . SVG Version: 6.00 Build 0)  -->
<!DOCTYPE svg PUBLIC "-//W3C//DTD SVG 1.1//EN" "http://www.w3.org/Graphics/SVG/1.1/DTD/svg11.dtd">
<svg version="1.1" id="Layer_1" xmlns="http://www.w3.org/2000/svg" xmlns:xlink="http://www.w3.org/1999/xlink" x="0px" y="0px"
	 width="40px" height="40px" viewBox="0 0 40 40" enable-background="new 0 0 40 40" xml:space="preserve">
<g>
	<g>
		<path fill="#FFFFFF" d="M0,22.439c0-1.659,0-3.317,0-4.977c0.049-0.153,0.097-0.307,0.146-0.46
			c0.31-0.953,0.941-1.529,1.946-1.674c1.141-0.165,2.28-0.337,3.42-0.501c0.566-0.082,0.966-1.026,0.622-1.488
			c-0.697-0.938-1.401-1.871-2.099-2.81C3.231,9.45,3.269,8.176,4.196,7.203c0.996-1.046,2.02-2.07,3.067-3.065
			c0.966-0.919,2.22-0.958,3.283-0.165c0.937,0.699,1.869,1.403,2.805,2.105c0.522,0.392,1.429,0.03,1.531-0.623
			c0.179-1.138,0.353-2.277,0.511-3.418c0.135-0.981,0.704-1.569,1.617-1.869c0.182-0.06,0.366-0.113,0.55-0.169
			c1.626,0,3.252,0,4.877,0c0.074,0.029,0.146,0.068,0.224,0.085c1.188,0.261,1.763,0.849,1.955,2.054
			c0.181,1.122,0.331,2.249,0.508,3.372c0.093,0.591,1.009,0.956,1.481,0.603c0.949-0.712,1.896-1.428,2.846-2.138
			c1.066-0.797,2.313-0.756,3.283,0.17c1.047,0.998,2.07,2.023,3.065,3.072c0.908,0.957,0.946,2.236,0.158,3.29
			c-0.622,0.833-1.213,1.694-1.892,2.48c-0.424,0.492-0.508,0.94-0.168,1.463c0.101,0.152,0.273,0.331,0.437,0.357
			c1.17,0.192,2.345,0.357,3.521,0.513c1.055,0.139,1.697,0.737,2.015,1.727c0.045,0.139,0.087,0.277,0.129,0.416
			c0,1.658,0,3.316,0,4.977c-0.049,0.151-0.099,0.306-0.147,0.459c-0.309,0.953-0.939,1.527-1.945,1.674
			c-1.141,0.164-2.278,0.336-3.42,0.501c-0.563,0.081-0.965,1.024-0.621,1.485c0.697,0.938,1.4,1.871,2.099,2.81
			c0.793,1.063,0.774,2.333-0.127,3.288c-1.013,1.074-2.06,2.121-3.136,3.134c-0.958,0.899-2.191,0.924-3.243,0.14
			c-0.963-0.717-1.921-1.443-2.883-2.16c-0.414-0.311-1.354,0.063-1.435,0.575c-0.188,1.201-0.369,2.405-0.539,3.609
			c-0.134,0.931-0.668,1.521-1.52,1.854c-0.18,0.071-0.363,0.127-0.546,0.19c-1.69,0-3.382,0-5.073,0
			c-0.058-0.026-0.113-0.063-0.175-0.079c-1.109-0.277-1.77-0.945-1.916-2.109c-0.141-1.11-0.313-2.218-0.483-3.324
			c-0.106-0.689-1.002-1.055-1.554-0.643c-0.923,0.691-1.844,1.385-2.769,2.073c-1.06,0.791-2.287,0.783-3.244-0.112
			c-1.09-1.021-2.146-2.082-3.167-3.172c-0.869-0.926-0.893-2.195-0.138-3.211c0.62-0.833,1.216-1.689,1.888-2.479
			c0.422-0.496,0.559-0.955,0.189-1.5c-0.103-0.15-0.276-0.324-0.44-0.352C4.485,24.9,3.312,24.736,2.138,24.58
			c-0.837-0.112-1.462-0.518-1.831-1.278C0.176,23.029,0.102,22.729,0,22.439z M9.047,33.9c1.354-1.01,2.718-2.034,4.096-3.041
			c0.139-0.102,0.396-0.174,0.54-0.114c1.035,0.421,2.049,0.896,3.085,1.313c0.282,0.113,0.355,0.282,0.391,0.539
			c0.229,1.656,0.475,3.312,0.687,4.971c0.044,0.343,0.182,0.425,0.497,0.421c1.105-0.015,2.212-0.021,3.316,0.002
			c0.364,0.008,0.458-0.132,0.502-0.472c0.212-1.658,0.461-3.313,0.68-4.972c0.04-0.298,0.171-0.434,0.449-0.542
			c0.949-0.37,1.896-0.755,2.821-1.186c0.322-0.149,0.525-0.153,0.813,0.066c1.341,1.026,2.698,2.026,4.013,3.01
			c1.008-1.01,1.992-1.996,2.998-3.004c-0.076-0.107-0.176-0.254-0.281-0.396c-0.924-1.236-1.854-2.468-2.769-3.713
			c-0.095-0.13-0.165-0.368-0.112-0.501c0.426-1.053,0.873-2.094,1.341-3.127c0.063-0.143,0.249-0.299,0.399-0.323
			c0.911-0.153,1.83-0.271,2.746-0.401c0.895-0.129,1.789-0.262,2.688-0.394c0-1.418,0-2.778,0-4.156
			c-0.191-0.04-0.362-0.087-0.536-0.111c-1.606-0.229-3.214-0.47-4.826-0.669c-0.343-0.043-0.446-0.202-0.56-0.481
			c-0.383-0.963-0.774-1.923-1.209-2.864c-0.131-0.284-0.103-0.453,0.076-0.686c0.916-1.202,1.816-2.416,2.723-3.626
			c0.123-0.163,0.24-0.331,0.33-0.456c-1.021-1.015-2-1.989-3-2.984c-1.348,1.005-2.729,2.026-4.1,3.065
			c-0.229,0.175-0.393,0.165-0.646,0.048c-0.942-0.433-1.895-0.844-2.859-1.222c-0.314-0.123-0.461-0.274-0.506-0.609
			c-0.217-1.626-0.463-3.248-0.678-4.874c-0.039-0.29-0.139-0.383-0.426-0.379c-1.153,0.013-2.309,0.013-3.462,0
			c-0.286-0.004-0.387,0.087-0.425,0.378c-0.214,1.643-0.459,3.281-0.677,4.924c-0.044,0.33-0.176,0.476-0.503,0.595
			c-0.928,0.337-1.844,0.714-2.736,1.136c-0.36,0.171-0.589,0.153-0.898-0.084c-1.325-1.017-2.67-2.006-3.962-2.972
			c-1.012,1.016-1.994,2.002-2.999,3.01c0.074,0.102,0.173,0.249,0.279,0.39c0.924,1.236,1.854,2.469,2.763,3.717
			c0.097,0.133,0.135,0.393,0.074,0.544c-0.41,1.021-0.843,2.034-1.296,3.038c-0.069,0.155-0.261,0.33-0.42,0.357
			c-0.912,0.158-1.831,0.271-2.747,0.404C3.828,17.6,2.937,17.735,2.06,17.864c0,1.434,0,2.793,0,4.163
			c0.201,0.039,0.374,0.08,0.55,0.105c1.592,0.227,3.183,0.461,4.777,0.664c0.32,0.041,0.472,0.146,0.579,0.456
			c0.267,0.765,0.486,1.569,0.901,2.251c0.452,0.744,0.386,1.243-0.167,1.898c-0.949,1.127-1.786,2.349-2.649,3.502
			C7.056,31.911,8.031,32.886,9.047,33.9z"/>
		<path fill="#FFFFFF" d="M20.038,11.076c4.848,0.033,8.706,3.956,8.661,8.805c-0.045,4.805-3.979,8.646-8.811,8.608
			c-4.765-0.037-8.622-3.983-8.587-8.782C11.337,14.912,15.253,11.043,20.038,11.076z M26.656,19.805
			c0.01-3.683-2.953-6.671-6.634-6.692c-3.664-0.021-6.666,2.968-6.679,6.647c-0.014,3.684,2.955,6.674,6.633,6.684
			C23.662,26.452,26.646,23.484,26.656,19.805z"/>
	</g>
</g>
</svg>
