<?xml version="1.0" encoding="utf-8"?>
<!-- Generator: Adobe Illustrator 16.0.0, SVG Export Plug-In . SVG Version: 6.00 Build 0)  -->
<!DOCTYPE svg PUBLIC "-//W3C//DTD SVG 1.1//EN" "http://www.w3.org/Graphics/SVG/1.1/DTD/svg11.dtd">
<svg version="1.1" id="Layer_1" xmlns="http://www.w3.org/2000/svg" xmlns:xlink="http://www.w3.org/1999/xlink" x="0px" y="0px"
	 width="28px" height="28px" viewBox="0 0 28 28" enable-background="new 0 0 28 28" xml:space="preserve">
<g>
	<path d="M13.532,0.023c0.081,0,0.161,0,0.242,0c0.088,0.016,0.176,0.036,0.265,0.047c0.67,0.084,1.35,0.123,2.008,0.259
		c2.539,0.524,4.354,1.962,5.389,4.359c0.685,1.584,0.957,3.264,1.191,4.955c0.211,1.508,0.4,3.021,0.674,4.519
		c0.262,1.431,0.809,2.746,1.893,3.779c0.115,0.11,0.207,0.248,0.298,0.382c0.77,1.131,0.618,2.403-0.438,3.271
		c-0.384,0.316-0.832,0.572-1.287,0.778c-1.205,0.545-2.496,0.792-3.797,0.976c-0.678,0.096-1.359,0.163-2.046,0.244
		c-0.009,0.084-0.019,0.152-0.021,0.223c-0.074,2.088-1.506,3.742-3.563,4.107c-0.207,0.037-0.417,0.059-0.626,0.088
		c-0.041,0-0.081,0-0.122,0c-0.099-0.017-0.197-0.039-0.297-0.048c-2.15-0.178-3.813-1.909-3.89-4.077
		c-0.009-0.27-0.104-0.324-0.347-0.354c-1.02-0.128-2.043-0.246-3.053-0.433c-1.143-0.213-2.257-0.539-3.251-1.175
		c-0.63-0.403-1.132-0.913-1.289-1.681c-0.2-0.979,0.196-1.764,0.849-2.436c0.617-0.638,1.058-1.369,1.358-2.195
		c0.52-1.424,0.699-2.917,0.887-4.408C4.77,9.522,4.944,7.835,5.407,6.197c0.38-1.344,0.932-2.601,1.875-3.654
		c1.237-1.382,2.835-2.06,4.629-2.336C12.449,0.125,12.992,0.083,13.532,0.023z M23.264,19.748
		c-0.059-0.078-0.082-0.122-0.117-0.156c-1.166-1.172-1.832-2.611-2.25-4.188c-0.443-1.664-0.604-3.373-0.828-5.072
		c-0.184-1.401-0.373-2.801-0.84-4.145c-0.537-1.552-1.506-2.678-3.121-3.16c-1.26-0.375-2.538-0.427-3.836-0.241
		c-2.28,0.327-3.69,1.636-4.245,3.83c-0.318,1.258-0.508,2.549-0.725,3.83c-0.261,1.541-0.433,3.099-0.746,4.628
		c-0.351,1.716-1.073,3.273-2.34,4.535c-0.032,0.031-0.047,0.08-0.097,0.166c0.368,0.145,0.706,0.305,1.06,0.412
		c1.573,0.479,3.198,0.666,4.829,0.785c2.896,0.215,5.791,0.192,8.681-0.121c1.313-0.145,2.621-0.336,3.875-0.787
		C22.795,19.98,23.014,19.861,23.264,19.748z M11.37,23.713c-0.007,1.314,1.09,2.354,2.394,2.293
		c1.212-0.056,2.251-1.156,2.145-2.293C14.404,23.713,12.898,23.713,11.37,23.713z"/>
</g>
</svg>
