<?xml version="1.0" encoding="utf-8"?>
<!-- Generator: Adobe Illustrator 16.0.0, SVG Export Plug-In . SVG Version: 6.00 Build 0)  -->
<!DOCTYPE svg PUBLIC "-//W3C//DTD SVG 1.1//EN" "http://www.w3.org/Graphics/SVG/1.1/DTD/svg11.dtd">
<svg version="1.1" id="Layer_1" xmlns="http://www.w3.org/2000/svg" xmlns:xlink="http://www.w3.org/1999/xlink" x="0px" y="0px"
	 width="40px" height="40px" viewBox="0 0 40 40" enable-background="new 0 0 40 40" xml:space="preserve">
<g>
	<path fill="#FFFFFF" d="M19.331,0.02c0.116,0,0.231,0,0.347,0c0.126,0.022,0.251,0.051,0.378,0.067
		c0.958,0.121,1.928,0.175,2.87,0.37c3.629,0.749,6.223,2.805,7.701,6.23c0.979,2.264,1.368,4.665,1.705,7.082
		c0.3,2.156,0.572,4.318,0.962,6.458c0.373,2.044,1.154,3.925,2.704,5.403c0.165,0.158,0.296,0.354,0.426,0.544
		c1.1,1.617,0.883,3.436-0.625,4.676c-0.549,0.451-1.191,0.818-1.841,1.112c-1.722,0.779-3.565,1.132-5.426,1.394
		c-0.968,0.137-1.942,0.233-2.925,0.351c-0.01,0.119-0.025,0.218-0.028,0.317c-0.106,2.985-2.152,5.349-5.091,5.873
		c-0.296,0.053-0.596,0.082-0.895,0.125c-0.058,0-0.115,0-0.173,0c-0.141-0.023-0.282-0.057-0.425-0.068
		c-3.073-0.254-5.449-2.73-5.56-5.829c-0.014-0.384-0.149-0.463-0.496-0.507c-1.458-0.182-2.92-0.354-4.364-0.619
		c-1.634-0.303-3.227-0.77-4.647-1.678c-0.9-0.575-1.618-1.307-1.842-2.402c-0.285-1.396,0.28-2.52,1.214-3.482
		c0.882-0.908,1.511-1.957,1.941-3.136c0.743-2.036,0.999-4.17,1.268-6.301c0.304-2.402,0.552-4.814,1.213-7.155
		c0.543-1.92,1.332-3.716,2.68-5.222c1.769-1.975,4.052-2.944,6.616-3.339C17.784,0.164,18.56,0.105,19.331,0.02z M33.239,28.211
		c-0.083-0.111-0.117-0.174-0.165-0.222c-1.667-1.677-2.619-3.733-3.219-5.985c-0.633-2.379-0.862-4.822-1.183-7.251
		c-0.263-2.002-0.534-4.002-1.198-5.923c-0.77-2.218-2.154-3.828-4.464-4.517c-1.798-0.537-3.625-0.611-5.482-0.345
		c-3.258,0.467-5.274,2.338-6.066,5.474c-0.455,1.797-0.727,3.643-1.036,5.474c-0.373,2.202-0.619,4.429-1.065,6.615
		c-0.501,2.453-1.534,4.68-3.344,6.48c-0.046,0.045-0.068,0.114-0.138,0.237c0.526,0.208,1.009,0.437,1.514,0.589
		c2.249,0.686,4.57,0.953,6.902,1.125c4.139,0.305,8.276,0.275,12.404-0.175c1.879-0.205,3.748-0.479,5.539-1.124
		C32.568,28.544,32.882,28.374,33.239,28.211z M16.241,33.878c-0.01,1.88,1.559,3.363,3.421,3.278
		c1.732-0.079,3.217-1.653,3.064-3.278C20.578,33.878,18.425,33.878,16.241,33.878z"/>
</g>
</svg>
