<?xml version="1.0" encoding="utf-8"?>
<!-- Generator: Adobe Illustrator 16.0.0, SVG Export Plug-In . SVG Version: 6.00 Build 0)  -->
<!DOCTYPE svg PUBLIC "-//W3C//DTD SVG 1.1//EN" "http://www.w3.org/Graphics/SVG/1.1/DTD/svg11.dtd">
<svg version="1.1" id="Layer_1" xmlns="http://www.w3.org/2000/svg" xmlns:xlink="http://www.w3.org/1999/xlink" x="0px" y="0px"
	 width="20px" height="20px" viewBox="0 0 20 20" enable-background="new 0 0 20 20" xml:space="preserve">
<g>
	<path fill="#55ACEE" d="M20,18.75c0,0.69-0.56,1.25-1.249,1.25H1.25C0.56,20,0,19.44,0,18.75V1.25C0,0.56,0.56,0,1.25,0h17.501
		C19.44,0,20,0.56,20,1.25V18.75z"/>
	<path fill="#FFFFFF" d="M16.24,6.183c-0.458,0.201-0.951,0.336-1.472,0.397c0.531-0.312,0.938-0.806,1.128-1.395
		c-0.493,0.288-1.042,0.498-1.627,0.611C13.803,5.306,13.137,5,12.397,5c-1.414,0-2.562,1.129-2.562,2.524
		c0,0.196,0.022,0.391,0.065,0.576c-2.13-0.107-4.018-1.112-5.283-2.638c-0.22,0.373-0.348,0.806-0.348,1.27
		c0,0.875,0.454,1.647,1.14,2.101c-0.419-0.014-0.815-0.127-1.16-0.317C4.25,8.526,4.25,8.537,4.25,8.548
		c0,1.222,0.884,2.242,2.057,2.475c-0.214,0.056-0.441,0.089-0.676,0.089c-0.165,0-0.325-0.016-0.48-0.045
		c0.324,1.002,1.271,1.731,2.392,1.753C6.668,13.495,5.563,13.9,4.362,13.9c-0.206,0-0.412-0.011-0.612-0.036
		c1.134,0.717,2.481,1.134,3.93,1.134c4.713,0,7.291-3.847,7.291-7.183c0-0.107-0.004-0.218-0.007-0.326
		C15.462,7.133,15.899,6.688,16.24,6.183z"/>
</g>
</svg>
